<?xml version="1.0" encoding="utf-8"?>
<!-- Generator: Adobe Illustrator 23.0.0, SVG Export Plug-In . SVG Version: 6.00 Build 0)  -->
<svg version="1.1" id="Layer_1" xmlns="http://www.w3.org/2000/svg" xmlns:xlink="http://www.w3.org/1999/xlink" x="0px" y="0px"
	 viewBox="0 0 24 24" style="enable-background:new 0 0 24 24;" xml:space="preserve">
<style type="text/css">
	.st0{fill:#D4AF73;}
</style>
<path class="st0" d="M23.3,12c-0.7-0.7-0.9-1.8-0.4-2.7c0.3-0.6,0.4-1.4,0.1-2.1c-0.3-0.7-0.9-1.1-1.6-1.3c-1-0.2-1.7-1.1-1.8-2.1
	c-0.1-0.7-0.5-1.4-1.1-1.8c-0.6-0.4-1.4-0.5-2-0.2c-1,0.3-2,0-2.6-0.8c-0.4-0.6-1.1-0.9-1.9-0.9c-0.7,0-1.4,0.3-1.8,0.9
	C9.5,1.8,8.5,2.1,7.5,1.8C6.8,1.5,6.1,1.6,5.5,2s-1,1-1.1,1.8c-0.1,1-0.8,1.9-1.8,2.1C1.9,6,1.3,6.5,1,7.2S0.7,8.6,1.1,9.2
	c0.5,0.9,0.3,2-0.4,2.7c-0.5,0.5-0.7,1.2-0.6,2s0.5,1.3,1.2,1.7c0.9,0.5,1.4,1.5,1.1,2.5c-0.1,0.7,0,1.4,0.5,2
	C3.3,20.7,4,21,4.8,20.9c1-0.1,2,0.5,2.3,1.5c0.3,0.7,0.8,1.2,1.5,1.4c0.7,0.2,1.4,0.1,2-0.4c0.8-0.6,1.9-0.6,2.8,0
	c0.6,0.4,1.3,0.6,2,0.4c0.7-0.2,1.3-0.7,1.5-1.4c0.4-0.9,1.3-1.6,2.3-1.5c0.7,0,1.4-0.2,1.9-0.8c0.5-0.5,0.7-1.3,0.5-2
	c-0.2-1,0.3-2,1.1-2.5c0.6-0.4,1.1-1,1.2-1.7S23.8,12.5,23.3,12z M10.8,17.4L6.3,13l1.9-1.9l2.6,2.5l5.6-5.8l1.9,1.9L10.8,17.4z"/>
</svg>
